<?xml version="1.0" encoding="UTF-8"?>
<svg version="1.1" xmlns="http://www.w3.org/2000/svg" width="512" height="512">
<path d="M0 0 C3.96847887 4.31690186 3.71051747 8.48074908 3.50786591 14.10814476 C3.24965232 18.17029152 2.93012172 22.22386601 2.59277344 26.2800293 C2.46904717 27.83952672 2.34600327 29.3990784 2.22358704 30.9586792 C1.89027725 35.17600637 1.54651555 39.39241867 1.20011044 43.60868812 C0.91143616 47.13255762 0.62760756 50.656811 0.34367108 54.1810649 C-0.32623042 62.49349562 -1.00492767 70.80517662 -1.68896484 79.11645508 C-2.39418682 87.68719923 -3.08385345 96.25909676 -3.76603532 104.83170289 C-4.35296699 112.19995014 -4.94984309 119.56734642 -5.55463576 126.93414909 C-5.91545984 131.33072211 -6.2724295 135.72752245 -6.61969757 140.12518883 C-6.94640194 144.25727475 -7.2855038 148.3881585 -7.63416481 152.51844788 C-7.75995691 154.03340406 -7.88136447 155.54873171 -7.99804497 157.06441689 C-8.15812179 159.13472856 -8.33404568 161.20310727 -8.51397705 163.27177429 C-8.60837696 164.42929545 -8.70277687 165.58681662 -8.80003738 166.77941418 C-9.42464268 170.12105746 -10.32698679 172.15381397 -12.375 174.85546875 C-15.5625 176.16796875 -15.5625 176.16796875 -18.375 176.85546875 C-17.76914062 177.11199219 -17.16328125 177.36851562 -16.5390625 177.6328125 C-3.01134576 183.81393846 5.55483234 193.78820036 10.86328125 207.49609375 C12.43078739 212.35134354 12.85508877 217.08682569 13.1875 222.16796875 C13.31318359 224.04935547 13.31318359 224.04935547 13.44140625 225.96875 C13.50199219 226.92136719 13.56257813 227.87398437 13.625 228.85546875 C14.305625 228.33984375 14.98625 227.82421875 15.6875 227.29296875 C19.55372136 225.40098808 21.43924776 225.96890223 25.625 226.85546875 C28.16355683 227.90115588 30.5430955 228.97658356 32.98046875 230.21484375 C33.67104874 230.55530731 34.36162872 230.89577087 35.07313538 231.24655151 C36.55356077 231.97749651 38.03185899 232.71276304 39.50817871 233.45196533 C43.44231166 235.42132431 47.39220342 237.35868225 51.33984375 239.30078125 C52.52980453 239.88785355 52.52980453 239.88785355 53.74380493 240.48678589 C60.73720239 243.9304668 67.79009636 247.22878644 74.875 250.48046875 C84.68205101 254.99299788 94.41894105 259.63113973 104.125 264.35546875 C114.08237399 269.20153123 124.07177056 273.9610228 134.125 278.60546875 C142.99074937 282.70604257 151.85535745 286.80786909 160.6875 290.98046875 C161.65171875 291.4300293 162.6159375 291.87958984 163.609375 292.34277344 C164.49238281 292.76204102 165.37539063 293.18130859 166.28515625 293.61328125 C167.05480713 293.97566895 167.82445801 294.33805664 168.61743164 294.71142578 C172.00240458 296.64040343 173.38511689 298.13581943 174.625 301.85546875 C175.02037599 307.56017939 173.95746078 312.0400042 172.125 317.35546875 C171.85582764 318.14083008 171.58665527 318.92619141 171.30932617 319.73535156 C166.06332266 334.47717238 155.34225307 356.49684221 140.625 363.85546875 C132.20306877 365.07800715 127.97044743 362.01983835 121.31445312 357.09130859 C118.996053 355.3953922 116.62247858 353.78627321 114.24707031 352.17163086 C105.89621349 346.49022385 97.62975197 340.68453832 89.34228516 334.91137695 C80.85196528 329.00205269 72.3199684 323.15539713 63.77587891 317.32421875 C52.92797333 309.91661376 42.13432212 302.43266853 31.3581543 294.92114258 C24.24138276 289.96554671 17.09612761 285.05350787 9.91479492 280.19189453 C-3.90497957 270.79550962 -3.90497957 270.79550962 -5.375 267.85546875 C-5.41522391 265.52248215 -5.41820247 263.18840209 -5.375 260.85546875 C-5.98085938 261.25378906 -6.58671875 261.65210938 -7.2109375 262.0625 C-19.5726584 269.87891122 -31.80034521 272.13879543 -46.2265625 269.5859375 C-53.3521648 267.93272704 -59.49764571 265.18615086 -65.375 260.85546875 C-65.271875 261.90734375 -65.16875 262.95921875 -65.0625 264.04296875 C-65.46067838 268.90074494 -66.79448248 269.67550026 -70.375 272.85546875 C-72.38267395 274.40067038 -74.42803583 275.89760481 -76.5 277.35546875 C-77.10271729 277.78069824 -77.70543457 278.20592773 -78.32641602 278.64404297 C-84.08343564 282.68928068 -89.89710215 286.65302075 -95.71142578 290.61523438 C-102.12690976 294.9893704 -108.50580271 299.41425902 -114.875 303.85546875 C-122.61413262 309.25051562 -130.37782579 314.60654552 -138.171875 319.921875 C-144.43176917 324.1966685 -150.65645294 328.52079986 -156.875 332.85546875 C-165.55097429 338.90065443 -174.23707347 344.92918693 -182.9921875 350.859375 C-185.88623723 352.82251178 -188.73925274 354.82999357 -191.5703125 356.8828125 C-192.23546875 357.35412598 -192.900625 357.82543945 -193.5859375 358.31103516 C-194.80893768 359.17805493 -196.02122814 360.06051869 -197.21875 360.96240234 C-201.85270132 364.19991352 -205.91817685 364.70677032 -211.375 363.85546875 C-214.69817651 362.23663148 -216.89426172 359.57224743 -219.375 356.85546875 C-220.1690625 356.00597656 -220.963125 355.15648437 -221.78125 354.28125 C-233.94642739 340.52033174 -244.72548687 321.60392064 -245.80078125 302.953125 C-245.16543129 299.82300639 -243.5010391 298.20575173 -241.375 295.85546875 C-238.88671875 294.30078125 -238.88671875 294.30078125 -236.0625 292.98046875 C-235.00192383 292.47725098 -233.94134766 291.9740332 -232.84863281 291.45556641 C-231.70233398 290.92753418 -230.55603516 290.39950195 -229.375 289.85546875 C-228.16192374 289.28542895 -226.94936783 288.71428066 -225.73730469 288.14208984 C-221.95767463 286.36290538 -218.16696057 284.60817846 -214.375 282.85546875 C-212.06766076 281.78525881 -209.76036773 280.71494924 -207.453125 279.64453125 C-204.01735727 278.05167389 -200.58100328 276.46016067 -197.14257812 274.87304688 C-187.67554402 270.49277737 -178.28679849 265.96294262 -168.90783691 261.39801025 C-158.65297321 256.40942445 -148.34307994 251.55616585 -137.97973633 246.79589844 C-131.60572072 243.85690769 -125.27678334 240.84737189 -118.98046875 237.74609375 C-117.92474167 237.22776978 -117.92474167 237.22776978 -116.84768677 236.69897461 C-113.42161361 235.01635485 -110.00077785 233.32444094 -106.58789062 231.61523438 C-105.34395474 231.00218854 -104.09982373 230.38953845 -102.85546875 229.77734375 C-101.77160889 229.2369043 -100.68774902 228.69646484 -99.57104492 228.13964844 C-96.10191552 226.74574265 -93.10088725 226.11405293 -89.375 225.85546875 C-86.4375 227.29296875 -86.4375 227.29296875 -84.375 228.85546875 C-84.34921875 227.99566406 -84.3234375 227.13585937 -84.296875 226.25 C-83.53937736 210.46306055 -79.259735 196.7575388 -67.59765625 185.6796875 C-63.02693624 181.92832328 -57.99696517 178.72945714 -52.375 176.85546875 C-53.48875 176.44296875 -54.6025 176.03046875 -55.75 175.60546875 C-58.03239087 174.7601388 -59.11358517 174.26459323 -60.43661213 172.19400406 C-61.62809937 169.2247255 -61.85320671 166.58293675 -62.11576843 163.39202881 C-62.17126903 162.74497081 -62.22676962 162.09791281 -62.28395206 161.431247 C-62.4676378 159.265619 -62.63944398 157.09921525 -62.8112793 154.93261719 C-62.94058449 153.37846726 -63.07059684 151.82437603 -63.20126343 150.27033997 C-63.55389633 146.04971433 -63.89600226 141.82829604 -64.23579764 137.60661983 C-64.59295193 133.18568097 -64.958231 128.76541213 -65.32221985 124.34503174 C-65.93245978 116.91751088 -66.53569872 109.48944526 -67.13500977 102.06103516 C-67.82718245 93.48291028 -68.53121549 84.90582035 -69.24147671 76.32917571 C-69.85138783 68.96051946 -70.45486235 61.5913565 -71.05300075 54.22173524 C-71.41005043 49.82260245 -71.76928713 45.42367865 -72.13431358 41.02519989 C-72.47748351 36.88570695 -72.81254151 32.74563388 -73.14147568 28.60498619 C-73.2632086 27.08908211 -73.38770784 25.57339712 -73.51524162 24.05797005 C-74.77665545 9.02916695 -74.77665545 9.02916695 -73.375 2.85546875 C-59.24361611 -12.516617 -16.55567018 -10.51974876 0 0 Z M-65.375 6.85546875 C-65.34742264 9.7251577 -65.2453071 12.55916153 -65.09179688 15.42333984 C-65.04448174 16.35026831 -64.9971666 17.27719677 -64.94841766 18.23221397 C-64.23574546 31.35472191 -63.14403018 44.45208714 -62.08531761 57.55023241 C-61.84282089 60.55564851 -61.60252763 63.56123924 -61.36221933 66.56683099 C-60.79609398 73.6473378 -60.22660999 80.72756855 -59.65478516 87.80761719 C-59.06589688 95.09954343 -58.48228558 102.3918786 -57.90125132 109.68443453 C-57.39951879 115.97976747 -56.89486457 122.27486129 -56.38778067 128.56976545 C-56.08602963 132.31582078 -55.78531961 136.06195185 -55.48731995 139.80830765 C-55.15664416 143.96321639 -54.8198516 148.11760697 -54.48242188 152.27197266 C-54.38473007 153.50924606 -54.28703827 154.74651947 -54.18638611 156.02128601 C-54.09390091 157.14780075 -54.00141571 158.27431549 -53.90612793 159.43496704 C-53.78778217 160.90533385 -53.78778217 160.90533385 -53.66704559 162.40540504 C-53.44266195 164.98867873 -53.44266195 164.98867873 -52.375 167.85546875 C-48.085 167.85546875 -43.795 167.85546875 -39.375 167.85546875 C-39.375 159.27546875 -39.375 150.69546875 -39.375 141.85546875 C-36.735 141.85546875 -34.095 141.85546875 -31.375 141.85546875 C-31.375 150.43546875 -31.375 159.01546875 -31.375 167.85546875 C-27.085 167.85546875 -22.795 167.85546875 -18.375 167.85546875 C-17.33926864 164.74827467 -17.06254817 162.15976727 -16.79917908 158.89865112 C-16.69683456 157.65382462 -16.59449005 156.40899811 -16.48904419 155.12644958 C-16.37925821 153.74429919 -16.26955014 152.36214261 -16.15991211 150.97998047 C-16.04185275 149.52615352 -15.92347228 148.07235263 -15.80479431 146.61857605 C-15.48315293 142.66607535 -15.16628764 138.713205 -14.85045695 134.76023626 C-14.51908001 130.62025757 -14.18400158 126.48057821 -13.84950256 122.34085083 C-13.28783673 115.38207143 -12.72932998 108.42304369 -12.17260742 101.46386719 C-11.53003717 93.43214265 -10.88219683 85.4008563 -10.2315616 77.36978137 C-9.60516289 69.63600699 -8.98284163 61.90190939 -8.36224556 54.16766739 C-8.09847445 50.8815104 -7.83323592 47.5954768 -7.56678581 44.30953598 C-7.25242603 40.43073876 -6.94163909 36.55167092 -6.63352394 32.67237282 C-6.5202807 31.25377482 -6.40583259 29.83527238 -6.29004669 28.41687965 C-5.70234339 21.20811726 -5.23805238 14.08927161 -5.375 6.85546875 C-18.57445719 2.01566778 -53.66994774 -4.84958351 -65.375 6.85546875 Z M-65.625 196.10546875 C-72.87673366 205.35142917 -76.06999846 215.7002337 -75.06640625 227.4765625 C-73.14856309 238.35228177 -68.24994822 247.35819105 -59.62109375 254.35546875 C-49.55406718 261.07849171 -38.67575522 263.47180029 -26.72265625 261.39453125 C-15.52463844 258.3871647 -7.21798766 252.2487531 -0.90625 242.61328125 C4.8400824 232.42356391 5.66690034 221.41193852 2.796875 210.18359375 C-0.66549439 200.35046469 -6.95252622 192.2807881 -16.1875 187.35546875 C-33.42264204 179.28795545 -52.35881881 181.7590896 -65.625 196.10546875 Z M-83.375 229.85546875 C-82.375 231.85546875 -82.375 231.85546875 -82.375 231.85546875 Z M11.625 229.85546875 C12.625 231.85546875 12.625 231.85546875 12.625 231.85546875 Z M20.625 234.85546875 C19.39552734 236.61859741 18.21634748 238.41694685 17.0625 240.23046875 C16.42183594 241.22820312 15.78117187 242.2259375 15.12109375 243.25390625 C13.45882666 245.64424973 13.45882666 245.64424973 13.625 247.85546875 C17.07934314 249.86242166 20.5391063 251.85983654 24 253.85546875 C24.98484375 254.4278125 25.9696875 255.00015625 26.984375 255.58984375 C27.92539062 256.13125 28.86640625 256.67265625 29.8359375 257.23046875 C30.70524902 257.73320312 31.57456055 258.2359375 32.47021484 258.75390625 C34.51846072 260.00719732 34.51846072 260.00719732 36.625 259.85546875 C36.13 260.80421875 35.635 261.75296875 35.125 262.73046875 C33.48075631 265.57825041 33.48075631 265.57825041 33.625 267.85546875 C32.67753906 267.32759766 32.67753906 267.32759766 31.7109375 266.7890625 C24.11645894 262.59787332 16.4018518 258.69280584 8.625 254.85546875 C7.73077086 256.09178555 6.86012109 257.34518437 6 258.60546875 C5.26910156 259.64960938 5.26910156 259.64960938 4.5234375 260.71484375 C3.40496634 262.79414586 3.40496634 262.79414586 4.08984375 264.85546875 C6.2215957 267.63271303 8.88486496 269.2731837 11.8125 271.10546875 C13.17742055 271.98705043 14.54058618 272.87135286 15.90234375 273.7578125 C16.65370605 274.24620605 17.40506836 274.73459961 18.17919922 275.23779297 C22.8030229 278.29603371 27.33290066 281.49019755 31.875 284.66796875 C38.93585614 289.59738686 46.00972647 294.50490509 53.125 299.35546875 C60.15340869 304.14844886 67.14613836 308.99064395 74.125 313.85546875 C83.52683851 320.40854941 92.96891035 326.89992511 102.43457031 333.36035156 C105.93767716 335.75146016 109.43886427 338.14532308 112.9375 340.54296875 C113.90562622 341.20341187 113.90562622 341.20341187 114.89331055 341.87719727 C118.17258207 344.12485334 121.4047521 346.41728101 124.58984375 348.796875 C125.22688232 349.26843018 125.8639209 349.73998535 126.52026367 350.22583008 C127.72531454 351.12220265 128.92264331 352.02908537 130.1105957 352.94799805 C133.12950983 355.22264311 133.12950983 355.22264311 136.75390625 355.8828125 C150.17284867 348.51500069 160.19332944 326.4557892 164.72265625 312.46484375 C165.41956377 309.93652809 166.03983616 307.41097264 166.625 304.85546875 C159.8356352 300.37381908 152.71030087 296.84948547 145.375 293.35546875 C144.08567276 292.73711038 142.79644949 292.11853518 141.50732422 291.49975586 C131.80816999 286.8542579 122.05571211 282.32610693 112.29003906 277.82226562 C103.51879013 273.76571591 94.81409588 269.58441417 86.125 265.35546875 C74.98281224 259.9330578 63.79184074 254.63789196 52.53979492 249.4465332 C44.24344504 245.61749474 35.98396436 241.71731909 27.75341797 237.7487793 C26.95436035 237.3650415 26.15530273 236.98130371 25.33203125 236.5859375 C24.6356958 236.24973389 23.93936035 235.91353027 23.22192383 235.56713867 C21.76415377 234.78762572 21.76415377 234.78762572 20.625 234.85546875 Z M-92.375 234.85546875 C-94.76979822 235.74102566 -94.76979822 235.74102566 -97.4921875 237.14453125 C-99.09271973 237.92836182 -99.09271973 237.92836182 -100.72558594 238.72802734 C-102.4701709 239.59548584 -102.4701709 239.59548584 -104.25 240.48046875 C-106.72980511 241.69804123 -109.21256288 242.90953901 -111.6953125 244.12109375 C-112.33364014 244.43343964 -112.97196777 244.74578552 -113.62963867 245.06759644 C-120.08356823 248.21863383 -126.60004793 251.22964376 -133.125 254.23046875 C-143.75881171 259.1350553 -154.31120091 264.18740919 -164.84014893 269.31192017 C-174.01780036 273.77633411 -183.23207517 278.14318258 -192.5 282.41796875 C-201.86823888 286.74891245 -211.22561757 291.10134515 -220.53997803 295.54708862 C-221.83662995 296.16456596 -223.13466999 296.77913757 -224.43414307 297.39065552 C-226.23332423 298.23811117 -228.02696168 299.09730641 -229.8203125 299.95703125 C-230.84656738 300.44510254 -231.87282227 300.93317383 -232.93017578 301.43603516 C-235.63332986 302.76515705 -235.63332986 302.76515705 -237.375 305.85546875 C-233.26095168 325.29249943 -221.63598739 341.54661042 -208.375 355.85546875 C-204.09939673 355.27194969 -200.98773751 352.7222824 -197.5625 350.29296875 C-196.87454346 349.81263184 -196.18658691 349.33229492 -195.4777832 348.83740234 C-193.9457332 347.76723394 -192.41547551 346.69449652 -190.88671875 345.61962891 C-186.28966224 342.39078653 -181.6743335 339.1881503 -177.0625 335.98046875 C-176.07789795 335.29460693 -175.0932959 334.60874512 -174.07885742 333.90209961 C-167.26988476 329.16170391 -160.43317434 324.46404187 -153.57885742 319.78955078 C-147.31870759 315.51461462 -141.09368467 311.19045132 -134.875 306.85546875 C-127.89616844 301.99059543 -120.9032509 297.14868201 -113.875 292.35546875 C-106.5992393 287.39230468 -99.35510699 282.38490906 -92.125 277.35546875 C-91.16013672 276.68451172 -90.19527344 276.01355469 -89.20117188 275.32226562 C-84.23617973 271.86456554 -79.28919901 268.38500395 -74.375 264.85546875 C-75.70988128 261.26155761 -77.33522723 258.10056179 -79.375 254.85546875 C-84.43086617 255.41062268 -88.20404072 257.82797358 -92.5 260.35546875 C-93.91793658 261.18068229 -95.33715883 262.00369168 -96.7578125 262.82421875 C-97.69197998 263.37239258 -97.69197998 263.37239258 -98.64501953 263.93164062 C-100.375 264.85546875 -100.375 264.85546875 -103.375 265.85546875 C-104.365 262.39046875 -104.365 262.39046875 -105.375 258.85546875 C-98.445 254.89546875 -91.515 250.93546875 -84.375 246.85546875 C-85.32375 245.06109375 -86.2725 243.26671875 -87.25 241.41796875 C-87.78367188 240.40863281 -88.31734375 239.39929688 -88.8671875 238.359375 C-90.13154114 235.75406433 -90.13154114 235.75406433 -92.375 234.85546875 Z " fill="#000000" transform="translate(291.375,77.14453125)"/>
<path d="M0 0 C6.26724156 4.4288507 10.78220518 10.13257645 13.29296875 17.44921875 C15.04880763 27.81433214 14.21058948 37.73529203 8.3359375 46.58203125 C3.09745972 53.2660999 -3.91797179 57.48061967 -12.34375 58.59375 C-22.23346956 59.49135826 -30.15614784 57.09775537 -38.265625 51.3984375 C-44.34074626 46.1226743 -47.9171038 39.05865205 -48.6796875 31.078125 C-48.7908638 20.44967038 -47.48664642 12.07492275 -40.04296875 4.125 C-28.90945456 -5.90795992 -12.92339137 -7.75403482 0 0 Z M-35.21875 12.46875 C-39.41551261 17.65973428 -40.89792024 22.5196594 -40.71875 29.16015625 C-39.61455682 36.32590993 -35.72546307 41.94443562 -30.1875 46.4375 C-24.17505414 50.20801689 -18.25887372 50.30414633 -11.34375 49.59375 C-5.06662374 47.84952357 -0.94264092 43.89678864 2.65625 38.59375 C6.04424722 32.495355 6.82603027 26.97858675 5.03515625 20.265625 C2.44015222 13.48401447 -2.20590325 8.61534506 -8.734375 5.42578125 C-19.04769613 2.13725221 -28.03815266 4.7720933 -35.21875 12.46875 Z " fill="#000000" transform="translate(273.34375,272.40625)"/>
</svg>
