<?xml version="1.0" encoding="UTF-8"?>
<svg version="1.1" xmlns="http://www.w3.org/2000/svg" width="512" height="512">
<path d="M0 0 C17.53585318 9.40374381 34.43500482 20.02433279 50.84106445 31.27807617 C52.09882197 32.13492772 53.35663889 32.99169207 54.61450195 33.84838867 C62.77788244 39.42196642 70.88403293 45.07150689 78.89086914 50.86791992 C80.27758394 51.87063207 81.66649025 52.87031646 83.05688477 53.86791992 C119.26717229 79.88045331 119.26717229 79.88045331 129.84106445 99.27807617 C131.07856445 98.84495117 132.31606445 98.41182617 133.59106445 97.96557617 C149.45402943 92.75239519 164.4800929 90.80783618 180.04418945 98.3449707 C180.6371582 98.65289551 181.23012695 98.96082031 181.84106445 99.27807617 C181.92783447 98.7117749 182.01460449 98.14547363 182.10400391 97.56201172 C183.34197388 92.18810938 185.09750438 89.60734379 189.7590332 86.61010742 C191.83326226 85.40953873 193.92439479 84.23786052 196.02856445 83.09057617 C197.73577089 82.11511742 199.44296723 81.13964017 201.1493988 80.16282654 C202.90188819 79.16520807 204.66094823 78.18019686 206.42211914 77.19799805 C210.56633138 74.87079975 214.65984839 72.46401401 218.75317383 70.04882812 C242.54077486 56.03857186 266.58424124 42.4581833 290.84106445 29.27807617 C291.47935181 28.93111694 292.11763916 28.58415771 292.77526855 28.22668457 C377.11363638 -17.56902286 377.11363638 -17.56902286 398.49731445 -12.03442383 C406.07505119 -8.92028544 411.65478926 -4.33563956 414.84106445 3.27807617 C416.90454807 15.3599223 412.58936771 24.54527212 405.79418945 34.18041992 C397.89286401 44.23009845 388.58577426 53.1505296 378.59106445 61.08666992 C375.78693899 63.3212074 373.06730862 65.63690928 370.34106445 67.96557617 C327.40392164 103.69148089 265.28861629 152.4539933 206.84106445 150.27807617 C206.70390015 151.24438965 206.70390015 151.24438965 206.56396484 152.23022461 C204.84582349 163.57839756 199.61441303 172.16426548 191.59887695 180.21948242 C189.51638237 182.20715249 189.51638237 182.20715249 189.84106445 185.27807617 C191.38131891 187.04640955 191.38131891 187.04640955 193.30859375 188.84472656 C196.83242534 192.7534525 197.62019378 195.2767132 197.52336121 200.47486877 C197.46964859 201.37801315 197.41593597 202.28115753 197.3605957 203.21166992 C197.33117386 204.19671005 197.30175201 205.18175018 197.2714386 206.19664001 C197.2004084 208.37890882 197.1119336 210.56066 197.00860596 212.74163818 C196.83285955 216.45126392 196.70331725 220.16056593 196.58081055 223.87231445 C196.31629952 231.61507811 195.98129595 239.3540581 195.63029861 247.09332657 C195.52709329 249.37307323 195.42537534 251.65288251 195.32394409 253.93270874 C188.78031641 400.53426811 188.78031641 400.53426811 170.34106445 417.59057617 C162.91445745 422.6035359 156.67533916 423.33049836 147.84106445 422.27807617 C144.58450199 421.15260819 142.36905723 419.59444964 139.84106445 417.27807617 C139.25067383 416.76631836 138.6602832 416.25456055 138.05200195 415.72729492 C113.7561447 391.59198298 114.95105931 338.37951864 112.84106445 306.27807617 C112.79333893 305.55606018 112.7456134 304.83404419 112.69644165 304.09014893 C111.8914344 291.52531177 111.59459466 278.97008032 111.54589844 266.38061523 C111.53434206 264.31218648 111.5138331 262.24378837 111.484375 260.17553711 C111.23962006 242.85399741 112.80989014 226.60256467 119.15356445 210.34057617 C119.4469873 209.56262695 119.74041016 208.78467773 120.04272461 207.9831543 C122.32338714 202.1355501 125.09549983 196.83609746 128.45825195 191.52807617 C129.97783622 189.24662477 129.97783622 189.24662477 130.84106445 186.27807617 C130.11661133 186.03702148 129.3921582 185.7959668 128.64575195 185.54760742 C118.93595208 181.15250302 112.84161451 170.72308343 108.84106445 161.27807617 C108.84106445 160.28807617 108.84106445 159.29807617 108.84106445 158.27807617 C107.20524414 158.72086914 107.20524414 158.72086914 105.53637695 159.17260742 C98.71390012 160.67665519 92.55464594 161.7034149 86.3059082 158.00854492 C82.40157148 155.30041947 78.7646106 152.27345956 75.1472168 149.1965332 C71.31390305 146.0076512 67.25542843 143.13541147 63.21606445 140.21557617 C61.61540532 139.0368928 60.01642464 137.85592645 58.41918945 136.67260742 C57.64768555 136.10106934 56.87618164 135.52953125 56.08129883 134.94067383 C45.53377468 127.11279246 35.06776326 119.1804252 24.62988281 111.20703125 C19.93708294 107.62501912 15.22850486 104.06732622 10.48901367 100.54736328 C3.75747006 95.54523119 -2.81229761 90.38380567 -9.29638672 85.06469727 C-13.57884281 81.55183131 -17.90892885 78.11221362 -22.28393555 74.71557617 C-27.70057833 70.49801991 -32.94109404 66.10642665 -38.12695312 61.60888672 C-41.51808846 58.66996609 -44.95723171 55.82032876 -48.47143555 53.02807617 C-85.3570298 23.01760747 -85.3570298 23.01760747 -87.65893555 5.46557617 C-87.88340691 -1.60527168 -87.75728749 -8.06137947 -83.15893555 -13.72192383 C-61.61388271 -36.4412331 -21.11064509 -11.10444337 0 0 Z M-73.90893555 -6.03442383 C-76.11969978 -1.94450999 -76.67248007 1.88004655 -75.7097168 6.37573242 C-72.86764117 14.01467715 -66.76388263 19.58249933 -61.15893555 25.27807617 C-60.42803711 26.03604492 -59.69713867 26.79401367 -58.9440918 27.57495117 C-54.55465893 32.05999544 -49.92799216 36.20369393 -45.15893555 40.27807617 C-44.08179087 41.20739085 -43.00499645 42.13711161 -41.9284668 43.06713867 C-34.76028186 49.24944997 -27.51304678 55.31737549 -20.15893555 61.27807617 C-18.89815733 62.30888412 -17.63776664 63.34016616 -16.37768555 64.37182617 C-9.21204152 70.23022433 -1.99906841 76.00055558 5.3605957 81.61401367 C8.77533371 84.21944373 12.16184752 86.86038583 15.5480957 89.50268555 C22.67624262 95.06453152 29.83455175 100.57553679 37.08959961 105.97143555 C39.18131681 107.53191372 41.26716771 109.10007726 43.3527832 110.66870117 C53.27093271 118.12707154 63.19144997 125.5831403 73.22387695 132.88745117 C76.34355038 135.16037491 79.41145993 137.48661792 82.45825195 139.85620117 C83.93969915 140.97642096 85.42145683 142.0962303 86.90356445 143.21557617 C87.55736084 143.7423999 88.21115723 144.26922363 88.88476562 144.81201172 C92.7977471 147.7146803 95.29772037 148.59493752 100.2121582 148.15698242 C102.714631 147.77591362 104.57777485 147.40972097 106.84106445 146.27807617 C107.19361001 143.82833651 107.44611723 141.4280308 107.65356445 138.96557617 C108.74849011 128.61691175 111.8706265 119.97202887 118.60668945 111.89916992 C120.05296696 110.18091967 120.05296696 110.18091967 120.84106445 107.27807617 C114.54945471 93.33450864 101.68672888 82.55714584 89.6784668 73.64624023 C87.84020352 72.2774351 86.02087724 70.88649503 84.2043457 69.48901367 C62.36154168 52.77046262 -50.38755562 -28.71575447 -73.90893555 -6.03442383 Z M365.59106445 5.21557617 C364.60509277 5.62888184 363.61912109 6.0421875 362.60327148 6.46801758 C338.65003687 16.77967584 315.2706306 29.00345809 292.54223633 41.76489258 C289.45587372 43.49385818 286.35989898 45.20488548 283.26293945 46.91479492 C256.11788462 61.91691354 229.29223569 77.45585279 202.61865234 93.27978516 C201.75618896 93.790979 200.89372559 94.30217285 200.00512695 94.82885742 C198.86744873 95.50428589 198.86744873 95.50428589 197.70678711 96.19335938 C196.44114062 96.9291965 195.15051237 97.62335221 193.84106445 98.27807617 C192.39502972 101.57503537 191.74661393 104.67846168 191.84106445 108.27807617 C193.26822838 110.60940607 194.94039335 112.25160916 196.8918457 114.16088867 C202.35534397 120.09518939 204.38793664 128.4604902 206.06762695 136.16088867 C206.45047852 137.20889648 206.45047852 137.20889648 206.84106445 138.27807617 C221.27492576 143.08936327 239.83434854 136.19797027 252.91918945 129.87963867 C276.54472836 118.06056683 298.626361 103.56673781 320.59106445 88.96557617 C321.47976227 88.37615234 322.36846008 87.78672852 323.28408813 87.17944336 C338.71053129 76.92976557 353.66568641 66.21418434 367.84106445 54.27807617 C368.37940918 53.82996582 368.91775391 53.38185547 369.47241211 52.92016602 C391.45112412 35.83523555 391.45112412 35.83523555 403.64575195 12.02807617 C403.86594009 7.80046402 403.57323965 6.45092479 400.84106445 3.27807617 C389.99270812 -5.59785173 377.11850405 0.35938899 365.59106445 5.21557617 Z M126.59106445 119.52807617 C119.65464284 127.7046046 117.53948066 136.64724736 117.84106445 147.27807617 C119.20891346 157.98412514 123.83689907 166.09485083 131.84106445 173.27807617 C132.58356445 173.95870117 133.32606445 174.63932617 134.09106445 175.34057617 C143.36734361 181.87613649 152.6848581 183.11983032 163.84106445 182.27807617 C175.72714094 179.64174742 184.25134414 172.28826727 191.0949707 162.48120117 C195.92363869 154.14239446 196.87930941 143.21087093 194.72387695 133.93432617 C190.92961526 122.51796356 184.26700669 114.3214127 173.59106445 108.84057617 C156.14444844 100.54665379 139.38250455 106.17126856 126.59106445 119.52807617 Z M169.40356445 191.77807617 C160.13682474 194.15071967 151.23808995 193.5310129 141.84106445 192.27807617 C121.49236393 225.79662094 121.86718814 258.96903407 124.09106445 297.15307617 C124.19093155 298.89004761 124.19093155 298.89004761 124.29281616 300.66210938 C125.69782035 324.71998633 128.06074187 348.30532508 132.77856445 371.96557617 C133.00713135 373.11799805 133.23569824 374.27041992 133.47119141 375.45776367 C135.93459745 387.02314574 139.70523815 402.82526271 149.84106445 410.27807617 C153.79549858 411.3765301 156.06802741 411.54090877 159.96606445 410.21557617 C166.92205042 405.5278465 170.18589509 398.88488047 171.8684082 390.89916992 C172.18553279 389.17377411 172.48780633 387.4456104 172.77856445 385.71557617 C172.94477295 384.73290771 173.11098145 383.75023926 173.28222656 382.73779297 C179.85245545 341.86905596 181.45619309 300.18871693 183.42658615 258.90243912 C183.5265556 256.81992371 183.62854198 254.73751576 183.73098755 252.65512085 C184.11395884 244.81355828 184.44608211 236.9718207 184.7086792 229.12524414 C184.79847218 226.51582437 184.8987919 223.9067496 185.00860596 221.2980957 C185.16295703 217.44778528 185.26819882 213.59906314 185.3605957 209.74682617 C185.41430832 208.59138306 185.46802094 207.43593994 185.52336121 206.2454834 C185.6045758 200.65382362 185.45587561 197.1678346 181.49609375 192.9987793 C177.31425008 189.31735166 174.48808879 190.3195672 169.40356445 191.77807617 Z " fill="#000000" transform="translate(92.158935546875,55.721923828125)"/>
<path d="M0 0 C6.36115131 4.70614247 11.31893961 9.47120832 14 17 C14.4125 18.093125 14.825 19.18625 15.25 20.3125 C17.16308381 29.71849541 16.29272965 38.34530312 12 47 C6.66849049 54.65604766 -0.54554113 61.29919787 -10 63 C-21.51771302 63.77547516 -30.91582207 63.35704231 -40.25 55.8125 C-48.10995779 48.38213504 -51.96634905 40.57925016 -52.375 29.75 C-52.14337391 19.10739062 -48.81594541 11.81834515 -41.4453125 4.16796875 C-30.55343973 -5.48856382 -12.62868614 -7.95692556 0 0 Z M-37 17 C-40.51527457 22.71232117 -40.8205091 28.46422059 -40 35 C-38.14295015 41.69238718 -33.57481721 46.09221551 -28 50 C-22.41125745 52.62328732 -16.93254679 52.79845417 -11.0625 50.9375 C-4.98838862 48.42040715 -0.42608837 44.3173936 3 38.75 C4.71689075 32.3116597 5.19885019 25.90053793 2.4375 19.6875 C-1.15179212 13.54162437 -6.36470968 9.6398345 -13.09765625 7.46875 C-22.71026353 5.1001404 -30.7090374 10.05824817 -37 17 Z " fill="#000000" transform="translate(267,170)"/>
<path d="M0 0 C5.57894737 3.15789474 5.57894737 3.15789474 7 6 C7.42071592 9.05920574 7.48514117 11.9467746 7 15 C4.81840855 17.75569447 3.12822506 19.43588747 0 21 C-4.49565838 21.12150428 -7.9715823 20.80266747 -11.5625 18 C-13.520869 13.91296904 -13.9591664 10.44924245 -13 6 C-9.08606917 1.05608737 -6.27104539 -0.60298513 0 0 Z " fill="#000000" transform="translate(252,189)"/>
</svg>
