<svg version="1.1" id="Layer_1" xmlns="http://www.w3.org/2000/svg" xmlns:xlink="http://www.w3.org/1999/xlink" x="0px" y="0px"
	 width="100%" viewBox="0 0 336 336" enable-background="new 0 0 336 336" xml:space="preserve">
<path fill="#000000" opacity="1.000000" stroke="none" 
	d="
M148.146194,228.994690 
	C141.167191,242.627884 131.910767,253.775879 119.185669,261.809357 
	C101.793617,272.789185 84.121521,271.018372 69.690994,256.443817 
	C58.145271,244.782837 49.876289,231.027405 45.428066,215.131790 
	C43.785271,209.261292 44.778885,203.520279 47.119484,198.061417 
	C50.065968,191.189514 56.059357,188.786804 62.927509,188.796265 
	C73.239555,188.810486 83.550041,189.576492 93.862755,189.615967 
	C101.390572,189.644806 108.709930,188.220383 115.676361,185.035599 
	C118.615829,183.691772 120.181969,181.847549 120.412056,178.713470 
	C120.871475,172.455597 122.572342,166.603683 126.198845,161.405945 
	C128.379623,158.280334 126.097816,156.107010 124.583542,153.801361 
	C116.843826,142.016830 110.674377,129.592041 108.234177,115.520363 
	C104.060806,91.454170 114.323631,74.780006 137.817978,68.142120 
	C152.677460,63.943855 167.750366,64.058968 182.788940,67.086983 
	C187.714005,68.078651 192.224289,70.314369 195.865128,73.995110 
	C203.216202,81.426689 204.216965,88.350853 199.203613,97.530022 
	C193.383133,108.187057 185.376709,117.566216 180.821747,128.963181 
	C179.956985,131.126877 179.067871,133.282074 178.260849,135.467361 
	C175.689209,142.431061 174.553635,148.768280 182.644257,153.489334 
	C186.294525,155.619354 188.795639,159.612732 190.666458,163.537064 
	C192.203705,166.761734 194.137512,167.678650 197.738831,167.281158 
	C212.870239,165.611023 227.671753,167.251495 241.825912,173.094925 
	C265.318970,182.793884 273.786407,201.591721 265.467499,225.780762 
	C261.202698,238.181564 254.761627,249.404755 246.084671,259.300110 
	C242.832031,263.009460 238.885803,265.712097 234.333694,267.534515 
	C223.947876,271.692352 216.444809,269.140442 210.551605,259.607971 
	C206.247879,252.646469 202.919601,245.187088 199.318970,237.869629 
	C195.113266,229.322495 189.061234,222.372925 181.627945,216.516098 
	C179.345886,214.718018 177.402237,214.284592 174.398819,215.552460 
	C169.389389,217.667160 164.132416,219.827988 158.493317,219.212616 
	C153.485092,218.666107 150.506195,220.292297 149.712006,225.466736 
	C149.541977,226.574493 148.790131,227.592972 148.146194,228.994690 
M246.955139,245.465134 
	C251.865936,236.959747 256.810883,228.473114 259.209198,218.809326 
	C263.733276,200.580093 257.239410,187.329788 239.874130,180.287216 
	C227.353088,175.209259 214.321564,173.325104 200.771729,174.879730 
	C196.575851,175.361145 195.004303,176.753387 195.232025,181.062149 
	C195.725128,190.393417 192.935944,198.795670 186.779617,205.915436 
	C184.900711,208.088364 185.161423,209.502686 187.423660,211.187469 
	C195.591324,217.270294 201.512405,225.208557 206.078064,234.242538 
	C209.674469,241.358673 213.125076,248.564865 217.086136,255.475586 
	C220.843811,262.031464 225.348816,263.184998 232.298767,260.273285 
	C238.988892,257.470428 242.736511,251.729614 246.955139,245.465134 
M117.717979,93.364960 
	C117.215569,95.284279 116.522652,97.176025 116.240196,99.127190 
	C113.415482,118.640015 122.208908,134.649567 131.832428,150.387436 
	C133.032501,152.349976 134.451248,152.316025 136.410339,151.041199 
	C144.173096,145.989731 152.666931,143.470139 161.985092,144.672470 
	C165.823639,145.167740 167.668182,143.972610 168.413605,139.950729 
	C170.473145,128.838181 175.405167,118.875893 181.582764,109.495049 
	C185.057556,104.218468 188.720474,99.053551 191.949387,93.630394 
	C195.946167,86.917618 194.353165,81.190491 187.737473,77.059830 
	C185.608643,75.730652 183.310867,74.830719 180.851868,74.245697 
	C167.953888,71.177124 155.044373,71.938034 142.280548,74.671814 
	C131.637192,76.951416 122.644035,81.986870 117.717979,93.364960 
M74.155556,250.343445 
	C84.052513,259.760193 95.466370,264.715149 108.636368,258.692383 
	C125.120796,251.153900 135.712540,237.635681 142.748734,221.190964 
	C143.503998,219.425797 143.885330,217.724503 141.828522,216.387726 
	C132.456711,210.296692 124.575104,202.888336 121.076126,191.376617 
	C108.108223,196.621552 95.141876,198.043991 81.923416,197.058273 
	C75.450157,196.575562 68.992828,196.077957 62.502342,196.272125 
	C57.552330,196.420181 54.452305,198.895401 53.289154,203.765945 
	C51.868240,209.715881 53.155811,215.378891 55.503727,220.751007 
	C60.120811,231.314972 65.983360,241.154449 74.155556,250.343445 
M129.214020,174.851990 
	C126.613762,187.738831 131.157089,200.253632 141.833923,206.494553 
	C155.057648,214.224167 163.876617,213.760727 175.210373,205.187363 
	C194.129272,190.876236 189.182404,166.209442 173.953171,156.858078 
	C156.508972,146.146622 135.997269,154.535309 129.214020,174.851990 
z"/>
<path fill="#000000" opacity="1.000000" stroke="none" 
	d="
M154.717407,164.490051 
	C156.434219,164.318054 157.781906,164.021606 159.068451,164.190659 
	C161.199066,164.470612 162.953476,165.513794 162.981689,167.963013 
	C163.007996,170.247772 161.350571,171.193573 159.384109,171.355972 
	C152.827621,171.897385 149.075531,175.343765 147.864410,181.804321 
	C147.410080,184.227875 146.359955,186.456833 143.157715,185.418152 
	C140.259109,184.477936 139.396729,182.196838 140.007416,179.457367 
	C141.751556,171.633438 146.230057,166.342255 154.717407,164.490051 
z"/>
</svg>