<?xml version="1.0" encoding="UTF-8"?>
<!DOCTYPE svg PUBLIC "-//W3C//DTD SVG 1.1//EN" "http://www.w3.org/Graphics/SVG/1.1/DTD/svg11.dtd">
<!-- Creator: CorelDRAW -->
<svg xmlns="http://www.w3.org/2000/svg" xml:space="preserve" width="1.1211in" height="0.431677in" version="1.1" style="shape-rendering:geometricPrecision; text-rendering:geometricPrecision; image-rendering:optimizeQuality; fill-rule:evenodd; clip-rule:evenodd"
viewBox="0 0 10.51 4.05"
 xmlns:xlink="http://www.w3.org/1999/xlink"
 xmlns:xodm="http://www.corel.com/coreldraw/odm/2003">
 <defs>
  <style type="text/css">
   <![CDATA[
    .fil0 {fill:yellow;fill-rule:nonzero}
   ]]>
  </style>
 </defs>
 <g id="Layer_x0020_1">
  <metadata id="CorelCorpID_0Corel-Layer"/>
  <path class="fil0" d="M5.96 2.46l0.93 -0.13 0 0.47 -0.52 0.06 0 0.22 0.42 0 0 0.44 -0.42 0 0 0.52 -0.41 0 0 -1.58zm4.04 0.13c0.09,0.02 0.1,0.12 0.1,0.16l0.38 0c0,-0.13 -0.05,-0.27 -0.09,-0.34 -0.04,-0.07 -0.11,-0.13 -0.17,-0.16 -0.06,-0.03 -0.12,-0.04 -0.24,-0.04 -0.12,0 -0.21,0.02 -0.28,0.06 -0.07,0.04 -0.12,0.11 -0.16,0.2 -0.04,0.09 -0.06,0.19 -0.06,0.31 0,0.11 0.02,0.21 0.05,0.29 0.17,0.28 0.37,0.21 0.53,0.37 0.07,0.06 0.02,0.21 -0.09,0.19 -0.1,-0.02 -0.11,-0.13 -0.1,-0.17l0 -0.04 -0.41 0 0 0.04c0,0.14 0.05,0.29 0.1,0.37 0.04,0.07 0.12,0.14 0.18,0.17 0.06,0.04 0.13,0.05 0.26,0.05 0.2,0 0.37,-0.08 0.47,-0.28 0.1,-0.22 0.08,-0.64 -0.13,-0.79l-0 -0 0 0c-0.14,-0.1 -0.35,-0.14 -0.41,-0.2 -0.06,-0.05 -0.03,-0.19 0.07,-0.18 0.01,0 0.01,0 0.02,0zm-0.15 -1.8c0.23,0 0.23,0.61 0,0.61 -0,0 -0.01,-0 -0.01,-0 -0,0 -0.01,0 -0.01,0 -0.23,0 -0.23,-0.61 0,-0.61 0,0 0.01,0 0.01,0 0,-0 0.01,-0 0.01,-0zm0.16 -0.29c-0.09,-0.09 -0.2,-0.15 -0.32,-0.15 -0.29,0 -0.53,0.33 -0.53,0.73 0,0.4 0.24,0.73 0.53,0.73 0.14,0 0.27,-0.08 0.36,-0.2l0 0.18 0.45 0 0 -1.08 0 -0.07 0 -0.63 -0.5 0 0 0.49zm-1.51 0.04l0.5 0 0 1.28 -0.5 0.03 0 -1.31zm0 -0.53l0.5 0 0 0.44 -0.5 0 0 -0.44zm-0.72 1.28l0 0.44 0 0.16 0.5 -0.02 0 -0.9c0,-0.25 -0.21,-0.45 -0.47,-0.45 -0.03,0 -0.07,0 -0.1,0.01 -0.09,0.02 -0.17,0.06 -0.24,0.13l0 -0.67 -0.51 0 0 1.96 0.51 -0.04 0 -0.63 0 -0.16c0,-0.07 0.07,-0.13 0.15,-0.13 0.08,0 0.14,0.05 0.15,0.12 0,0 0,0.01 0,0.01 0,0 -0,0.01 -0,0.01l0 0.15zm-1.56 -0.44c0.11,0.02 0.12,0.1 0.11,0.13l0.44 0c0,-0.1 -0.06,-0.22 -0.11,-0.28 -0.05,-0.06 -0.13,-0.11 -0.2,-0.13 -0.07,-0.03 -0.14,-0.04 -0.28,-0.04 -0.14,0 -0.25,0.02 -0.33,0.05 -0.08,0.03 -0.14,0.09 -0.19,0.16 -0.05,0.07 -0.07,0.15 -0.07,0.25 0,0.09 0.02,0.17 0.06,0.24 0.2,0.22 0.43,0.17 0.61,0.3 0.08,0.05 0.03,0.17 -0.11,0.15 -0.11,-0.02 -0.12,-0.1 -0.12,-0.14l0 -0.03 -0.47 0 0 0.03c0,0.11 0.06,0.24 0.11,0.3 0.05,0.06 0.14,0.11 0.21,0.14 0.07,0.03 0.15,0.04 0.3,0.04 0.23,0 0.43,-0.06 0.55,-0.22 0.12,-0.18 0.1,-0.52 -0.15,-0.64l-0 -0 0 0c-0.16,-0.08 -0.41,-0.11 -0.48,-0.16 -0.07,-0.04 -0.03,-0.15 0.08,-0.14 0.01,0 0.01,0 0.02,0zm-0.73 -0.32l0 0.56c-0.03,-0.01 -0.05,-0.01 -0.08,-0.01 -0.06,0 -0.11,0.01 -0.16,0.04 -0.02,0.01 -0.04,0.02 -0.06,0.04 -0.07,0.05 -0.07,0.15 -0.07,0.19l0 0.44 0 0.39 -0.5 0.1 0 -0.17 0 -1.01 0 -0.56 0.45 0 0 0.25c0.02,-0.08 0.06,-0.14 0.12,-0.19 0.06,-0.05 0.14,-0.08 0.22,-0.08 0.03,0 0.06,0 0.08,0.01zm-1.14 0.42l0 1.36 -0.53 0.14 0 -0.18c-0.02,0.08 -0.06,0.14 -0.12,0.19 -0.06,0.05 -0.14,0.08 -0.22,0.08 -0.19,0 -0.35,-0.15 -0.35,-0.34l0 -1.66 0.49 0 0 0.72 0 0.45 0 0.12c-0,0 -0,0.01 -0,0.01 0,0 0,0.01 0,0.01 0,0.01 0,0.02 0.01,0.03 0.02,0.03 0.05,0.06 0.09,0.06 0,0 0,0 0,0 0.05,0 0.1,-0.05 0.1,-0.1l0 -1.3 0.53 0 0 0.42zm-2.18 -0.95l-0.53 0 0 2.07 0 0.82 0 0.3 0.53 -0.23 0 -1.67c0,-0.06 0.05,-0.1 0.1,-0.1 0.05,0 0.1,0.04 0.1,0.09 0,0 0,0.01 0,0.01 0,0 -0,0.01 -0,0.01l0 0.12 0 0.35 0 0.82 0 0.3 0.49 -0.18 0 -1.73c0,-0.25 -0.18,-0.45 -0.4,-0.45 -0.03,0 -0.06,0 -0.08,0.01 -0.08,0.02 -0.15,0.06 -0.2,0.13l0 -0.67zm-2.16 0l0.38 0 0.13 0 0 0.36 0 0.79 0.12 -0.44 0.2 -0.71 0.56 0 -0.45 1.58 0.45 1.7 -0.55 0.28 -0.23 -0.8 -0.1 0.34 0 0.63 -0.5 0.3 0 -0.3 0 -0.82 0 -2.2 0 -0.72zm8.15 2.25l0.38 -0.02 0.37 0.93 0 -0.96 0.38 0 0 1.82 -0.38 0 -0.37 -0.94 0 0.94 -0.38 0 0 -1.77zm-0.53 1.55l-0.35 0 -0.05 0.23 -0.41 0 0.43 -1.73 0.4 -0.04 0.42 1.76 -0.41 0 -0.04 -0.23zm-0.06 -0.39l-0.12 -0.52 -0.12 0.52 0.23 0z"/>
 </g>
</svg>
